<?xml version="1.0" encoding="UTF-8" standalone="no"?>
<svg
   height="16px"
   viewBox="0 0 16 16"
   width="16px"
   version="1.1"
   id="svg1"
   sodipodi:docname="icon.svg"
   inkscape:export-filename="icon.svg"
   inkscape:export-xdpi="96"
   inkscape:export-ydpi="96"
   inkscape:version="1.4.4 (dcaf3e7d9e, 2026-05-05)"
   xmlns:inkscape="http://www.inkscape.org/namespaces/inkscape"
   xmlns:sodipodi="http://sodipodi.sourceforge.net/DTD/sodipodi-0.dtd"
   xmlns="http://www.w3.org/2000/svg"
   xmlns:svg="http://www.w3.org/2000/svg">
  <defs
     id="defs1" />
  <sodipodi:namedview
     id="namedview1"
     pagecolor="#ffffff"
     bordercolor="#000000"
     borderopacity="0.25"
     inkscape:showpageshadow="2"
     inkscape:pageopacity="0.0"
     inkscape:pagecheckerboard="0"
     inkscape:deskcolor="#d1d1d1"
     inkscape:zoom="52"
     inkscape:cx="8"
     inkscape:cy="8"
     inkscape:window-width="1920"
     inkscape:window-height="1043"
     inkscape:window-x="0"
     inkscape:window-y="0"
     inkscape:window-maximized="1"
     inkscape:current-layer="svg1" />
  <path
     d="m 8 0 c -4.410156 0 -8 3.589844 -8 8 s 3.589844 8 8 8 s 8 -3.589844 8 -8 s -3.589844 -8 -8 -8 z m 0 2 c 3.332031 0 6 2.667969 6 6 s -2.667969 6 -6 6 s -6 -2.667969 -6 -6 s 2.667969 -6 6 -6 z m 0 1.875 c -0.621094 0 -1.125 0.503906 -1.125 1.125 s 0.503906 1.125 1.125 1.125 s 1.125 -0.503906 1.125 -1.125 s -0.503906 -1.125 -1.125 -1.125 z m -1.523438 3.125 c -0.265624 0.011719 -0.476562 0.230469 -0.476562 0.5 c 0 0.277344 0.222656 0.5 0.5 0.5 h 0.5 v 3 h -0.5 c -0.277344 0 -0.5 0.222656 -0.5 0.5 s 0.222656 0.5 0.5 0.5 h 3 c 0.277344 0 0.5 -0.222656 0.5 -0.5 s -0.222656 -0.5 -0.5 -0.5 h -0.5 v -4 h -2.5 c -0.007812 0 -0.015625 0 -0.023438 0 z m 0 0"
     fill="#222222"
     id="path1" />
  <path
     style="fill:#ffffff;stroke-width:0.0192308"
     d="M 7.6346154,15.979437 C 4.7265227,15.852514 2.0873694,14.109567 0.80821833,11.471154 0.40423277,10.637882 0.15238113,9.7466798 0.04466123,8.7692308 c -0.03180085,-0.2885606 -0.03180085,-1.249901 0,-1.5384616 0.1077199,-0.977449 0.35957154,-1.8686511 0.7635571,-2.701923 C 2.0901771,1.8846419 4.7360479,0.14044178 7.6442308,0.02243807 9.017225,-0.03327316 10.298557,0.23296302 11.5,0.82359277 c 2.334221,1.14750393 3.968293,3.34292163 4.382459,5.88794573 0.08019,0.4927834 0.09702,0.7132907 0.09758,1.2788461 5.82e-4,0.5858766 -0.01842,0.8271069 -0.106215,1.3483037 -0.485731,2.8836207 -2.55455,5.2993567 -5.341091,6.2367327 -0.662922,0.223003 -1.4349407,0.37098 -2.0666278,0.396123 -0.1400111,0.0056 -0.3108157,0.01284 -0.3795657,0.01615 -0.06875,0.0033 -0.2721154,-4.07e-4 -0.4519231,-0.0083 z m 1.0480769,-2.009208 c 0.492964,-0.05644 0.9905277,-0.174944 1.4615387,-0.34809 0.251033,-0.09228 0.833408,-0.381824 1.072833,-0.533388 1.390647,-0.88032 2.343702,-2.268487 2.675127,-3.8964433 C 13.975684,8.78219 13.998167,8.5293665 13.998218,8 13.998279,7.3663504 13.962014,7.063486 13.816008,6.4782558 13.455131,5.0317763 12.501523,3.7217213 11.221154,2.9134794 10.977319,2.7595569 10.395851,2.4703579 10.144231,2.377861 9.4280858,2.1146019 8.7779442,2.0000467 8,2.0000467 7.2220558,2.0000467 6.5719142,2.1146019 5.8557692,2.377861 5.6047356,2.4701423 5.0223608,2.7596854 4.7829356,2.9112487 3.4064442,3.7826081 2.450156,5.1636985 2.1182671,6.7596154 2.0246785,7.209644 2.001835,7.4528925 2.0017823,8 c -4.96e-5,0.5151233 0.020278,0.7567919 0.096243,1.1442308 0.3232973,1.6488752 1.2809113,3.0557482 2.68491,3.9445202 0.2394252,0.151564 0.8218,0.441107 1.0728336,0.533388 0.4579,0.168327 0.9627908,0.290348 1.4326923,0.346249 0.3222718,0.03834 1.0668618,0.03932 1.3942308,0.0018 z"
     id="path2" />
  <path
     style="fill:#ffffff;stroke-width:0.0192308"
     d="m 6.4162839,11.979652 c -0.1095715,-0.02197 -0.2394315,-0.09928 -0.2998704,-0.178517 -0.1929006,-0.252906 -0.1106871,-0.59634 0.1763769,-0.736787 0.1025908,-0.05019 0.1279927,-0.05396 0.413069,-0.06121 l 0.303756,-0.0077 V 9.5 8.0045953 l -0.303756,-0.00773 C 6.4207831,7.9896098 6.3953812,7.9858455 6.2927904,7.9356525 5.9168884,7.7517408 5.9173913,7.2484931 6.2936617,7.0637224 l 0.1101845,-0.054107 1.2932692,-0.00545 1.2932692,-0.00545 v 1.9983463 1.9983463 l 0.303756,0.0077 c 0.2850763,0.0073 0.3104782,0.01102 0.413069,0.06121 0.3759024,0.183911 0.3753994,0.687159 -8.713e-4,0.87193 l -0.1101845,0.05411 -1.5480769,0.003 c -0.8514423,0.0017 -1.5857491,-0.0045 -1.631793,-0.01376 z"
     id="path3" />
  <path
     style="fill:#ffffff;stroke-width:0.0192308"
     d="M 7.7273856,6.0770944 C 7.2305527,5.9468642 6.8942308,5.5161739 6.8942308,5.0101653 c 0,-0.2085475 0.035069,-0.355858 0.1256068,-0.527623 0.092554,-0.1755889 0.1972437,-0.2910969 0.3663419,-0.4041966 0.3516582,-0.2352034 0.7886773,-0.2527691 1.1594701,-0.046604 0.2463627,0.1369806 0.4584329,0.4128604 0.5307275,0.690418 0.037677,0.1446541 0.037677,0.4110267 0,0.5556808 C 8.9236412,5.864233 8.3076538,6.2291949 7.7273856,6.0770944 Z"
     id="path4" />
</svg>
